<svg width="36" height="36" viewBox="0 0 36 36" fill="none" xmlns="http://www.w3.org/2000/svg">
<path d="M10.4265 31.2844C10.2833 31.1406 10.2116 30.9625 10.2116 30.75V18.6911C8.86163 18.3459 7.82212 17.7463 7.09312 16.8923C6.36437 16.0385 6 14.9942 6 13.7595V5.25C6 5.0375 6.072 4.85938 6.216 4.71563C6.36 4.57188 6.53837 4.5 6.75112 4.5C6.96387 4.5 7.14188 4.57188 7.28513 4.71563C7.42838 4.85938 7.5 5.0375 7.5 5.25V13.0095H10.2116V5.25C10.2116 5.0375 10.2836 4.85938 10.4276 4.71563C10.5714 4.57188 10.7496 4.5 10.9624 4.5C11.1754 4.5 11.3535 4.57188 11.4967 4.71563C11.64 4.85938 11.7116 5.0375 11.7116 5.25V13.0095H14.4233V5.25C14.4233 5.0375 14.4951 4.85938 14.6389 4.71563C14.7829 4.57188 14.9613 4.5 15.174 4.5C15.3868 4.5 15.5648 4.57188 15.708 4.71563C15.8515 4.85938 15.9233 5.0375 15.9233 5.25V13.7595C15.9233 14.9942 15.5588 16.0385 14.8298 16.8923C14.101 17.7463 13.0616 18.3459 11.7116 18.6911V30.75C11.7116 30.9625 11.6396 31.1406 11.4956 31.2844C11.3516 31.4281 11.1733 31.5 10.9605 31.5C10.7478 31.5 10.5698 31.4281 10.4265 31.2844ZM24.4744 31.2844C24.3311 31.1406 24.2595 30.9625 24.2595 30.75V18.1931C22.9095 17.7239 21.8701 16.8955 21.1414 15.708C20.4126 14.5205 20.0483 13.0816 20.0483 11.3914C20.0483 9.49338 20.534 7.87025 21.5055 6.522C22.4772 5.174 23.6453 4.5 25.0095 4.5C26.382 4.5 27.5569 5.1755 28.5341 6.5265C29.5114 7.8775 30 9.502 30 11.4C30 13.1095 29.6308 14.5566 28.8923 15.7414C28.1538 16.9259 27.1095 17.7394 25.7595 18.1819V30.75C25.7595 30.9625 25.6876 31.1406 25.5439 31.2844C25.3999 31.4281 25.2215 31.5 25.0088 31.5C24.7958 31.5 24.6176 31.4281 24.4744 31.2844Z" fill="#152F56"/>
</svg>
