<svg width="36" height="36" viewBox="0 0 36 36" fill="none" xmlns="http://www.w3.org/2000/svg">
<path d="M21.7268 29.6049L13.5 26.7346L7.64737 28.9974C7.43762 29.0814 7.23687 29.1081 7.04512 29.0776C6.85312 29.0471 6.67637 28.9811 6.51487 28.8796C6.35337 28.7779 6.22713 28.6407 6.13613 28.4682C6.04538 28.2955 6 28.0975 6 27.8742V9.61549C6 9.33349 6.06488 9.08399 6.19463 8.86699C6.32438 8.64999 6.51337 8.49824 6.76162 8.41174L12.6983 6.39536C12.8215 6.34536 12.95 6.30786 13.0838 6.28286C13.2173 6.25786 13.356 6.24536 13.5 6.24536C13.644 6.24536 13.7828 6.25786 13.9163 6.28286C14.05 6.30786 14.1785 6.34536 14.3018 6.39536L22.5 9.26561L28.3526 7.00286C28.5624 6.91886 28.7631 6.89211 28.9549 6.92261C29.1469 6.95311 29.3236 7.01911 29.4851 7.12061C29.6466 7.22236 29.7729 7.35949 29.8639 7.53199C29.9546 7.70474 30 7.90274 30 8.12599V26.5134C30 26.7974 29.9206 27.0452 29.7619 27.257C29.6034 27.4685 29.3905 27.6175 29.1233 27.704L23.2733 29.6337C23.1423 29.6837 23.0141 29.7165 22.8889 29.732C22.7634 29.7472 22.633 29.7549 22.4978 29.7549C22.3628 29.7549 22.2333 29.7424 22.1093 29.7174C21.9853 29.6924 21.8578 29.6549 21.7268 29.6049ZM21.75 28.0557V10.5057L14.25 7.88674V25.4367L21.75 28.0557Z" fill="black"/>
</svg>
