<svg width="36" height="36" viewBox="0 0 36 36" fill="none" xmlns="http://www.w3.org/2000/svg">
<path d="M6.80775 30.2307C6.36725 30.2307 5.9975 30.0812 5.6985 29.7822C5.3995 29.4832 5.25 29.1136 5.25 28.6733V12.2885C5.25 11.8482 5.3995 11.4786 5.6985 11.1796C5.9975 10.8803 6.36725 10.7307 6.80775 10.7307H11.25V6.28846C11.25 5.84821 11.3995 5.47859 11.6985 5.17959C11.9975 4.88034 12.3673 4.73071 12.8078 4.73071H23.1923C23.6328 4.73071 24.0025 4.88034 24.3015 5.17959C24.6005 5.47859 24.75 5.84821 24.75 6.28846V16.7307H29.1923C29.6328 16.7307 30.0025 16.8803 30.3015 17.1796C30.6005 17.4786 30.75 17.8482 30.75 18.2885V28.6733C30.75 29.1136 30.6005 29.4832 30.3015 29.7822C30.0025 30.0812 29.6328 30.2307 29.1923 30.2307H20.25V24.2307H15.75V30.2307H6.80775ZM6.75 28.7307H11.25V24.2307H6.75V28.7307ZM6.75 22.7307H11.25V18.2307H6.75V22.7307ZM6.75 16.7307H11.25V12.2307H6.75V16.7307ZM12.75 22.7307H17.25V18.2307H12.75V22.7307ZM12.75 16.7307H17.25V12.2307H12.75V16.7307ZM12.75 10.7307H17.25V6.23071H12.75V10.7307ZM18.75 22.7307H23.25V18.2307H18.75V22.7307ZM18.75 16.7307H23.25V12.2307H18.75V16.7307ZM18.75 10.7307H23.25V6.23071H18.75V10.7307ZM24.75 28.7307H29.25V24.2307H24.75V28.7307ZM24.75 22.7307H29.25V18.2307H24.75V22.7307Z" fill="#152F56"/>
</svg>
