<svg width="36" height="36" viewBox="0 0 36 36" fill="none" xmlns="http://www.w3.org/2000/svg">
<path d="M11.6539 27V29.0768C11.6539 29.3333 11.5638 29.5513 11.3835 29.7308C11.2035 29.9103 10.9848 30 10.7273 30C10.47 30 10.2524 29.9103 10.0744 29.7308C9.89662 29.5513 9.80775 29.3333 9.80775 29.0768V26.4056C9.31925 26.1941 8.8125 25.7438 8.2875 25.0545C7.7625 24.365 7.5 23.5713 7.5 22.6733V9C7.5 7.44375 8.34212 6.30462 10.0264 5.58262C11.7106 4.86087 14.3681 4.5 17.9989 4.5C21.7611 4.5 24.4519 4.84688 26.0711 5.54063C27.6904 6.23438 28.5 7.3875 28.5 9V22.6733C28.5 23.5713 28.2375 24.365 27.7125 25.0545C27.1875 25.7438 26.6808 26.1941 26.1923 26.4056V29.0768C26.1923 29.3333 26.1023 29.5513 25.9223 29.7308C25.742 29.9103 25.5233 30 25.266 30C25.0085 30 24.7909 29.9103 24.6131 29.7308C24.4351 29.5513 24.3461 29.3333 24.3461 29.0768V27H11.6539ZM9 16.5H27V9.80775H9V16.5ZM13.9399 22.9331C14.2621 22.6064 14.4233 22.2098 14.4233 21.7433C14.4233 21.2765 14.2599 20.8821 13.9331 20.5601C13.6064 20.2379 13.2098 20.0768 12.7433 20.0768C12.2765 20.0768 11.8821 20.2401 11.5601 20.5669C11.2379 20.8936 11.0768 21.2903 11.0768 21.7568C11.0768 22.2235 11.2401 22.6179 11.5669 22.9399C11.8936 23.2621 12.2902 23.4233 12.7567 23.4233C13.2235 23.4233 13.6179 23.2599 13.9399 22.9331ZM24.4399 22.9331C24.7621 22.6064 24.9233 22.2098 24.9233 21.7433C24.9233 21.2765 24.7599 20.8821 24.4331 20.5601C24.1064 20.2379 23.7098 20.0768 23.2433 20.0768C22.7765 20.0768 22.3821 20.2401 22.0601 20.5669C21.7379 20.8936 21.5768 21.2903 21.5768 21.7568C21.5768 22.2235 21.7401 22.6179 22.0669 22.9399C22.3936 23.2621 22.7903 23.4233 23.2568 23.4233C23.7235 23.4233 24.1179 23.2599 24.4399 22.9331Z" fill="#152F56"/>
</svg>
