<svg width="36" height="36" viewBox="0 0 36 36" fill="none" xmlns="http://www.w3.org/2000/svg">
<path d="M21.1931 17.4431C22.0644 16.5721 22.5 15.5077 22.5 14.25C22.5 12.9922 22.0644 11.9278 21.1931 11.0568C20.3221 10.1856 19.2578 9.74997 18 9.74997C16.7423 9.74997 15.6779 10.1856 14.8069 11.0568C13.9356 11.9278 13.5 12.9922 13.5 14.25C13.5 15.5077 13.9356 16.5721 14.8069 17.4431C15.6779 18.3143 16.7423 18.75 18 18.75C19.2578 18.75 20.3221 18.3143 21.1931 17.4431ZM18 29.85C19.3405 29.4135 20.5554 28.7611 21.6446 27.8928C22.7341 27.0246 23.675 26.0106 24.4673 24.8508C23.4693 24.3393 22.4275 23.9447 21.342 23.667C20.2563 23.389 19.1423 23.25 18 23.25C16.8578 23.25 15.7438 23.389 14.658 23.667C13.5725 23.9447 12.5308 24.3393 11.5328 24.8508C12.325 26.0106 13.2659 27.0246 14.3554 27.8928C15.4446 28.7611 16.6595 29.4135 18 29.85ZM17.5703 31.2258C17.4203 31.2008 17.2799 31.1633 17.1491 31.1133C14.1971 29.9883 11.851 28.0802 10.1107 25.389C8.37025 22.6975 7.5 19.7845 7.5 16.65V10.2258C7.5 9.71634 7.64762 9.25484 7.94287 8.84134C8.23812 8.42784 8.6155 8.12784 9.075 7.94134L17.1518 4.94134C17.4443 4.83559 17.727 4.78271 18 4.78271C18.273 4.78271 18.5558 4.83559 18.8483 4.94134L26.925 7.94134C27.3845 8.12784 27.7619 8.42784 28.0571 8.84134C28.3524 9.25484 28.5 9.71634 28.5 10.2258V16.65C28.5 19.7845 27.6298 22.6975 25.8893 25.389C24.149 28.0802 21.8029 29.9883 18.8509 31.1133C18.7201 31.1633 18.5798 31.2008 18.4298 31.2258C18.2798 31.2508 18.1365 31.2633 18 31.2633C17.8635 31.2633 17.7203 31.2508 17.5703 31.2258Z" fill="black"/>
</svg>
