<svg width="36" height="36" viewBox="0 0 36 36" fill="none" xmlns="http://www.w3.org/2000/svg">
<path d="M17.3452 15.571L7.73917 11.4921C7.33167 11.3326 7.0928 11.0427 7.02255 10.6225C6.9523 10.2022 7.06817 9.84108 7.37017 9.53908L7.73917 9.14121C7.88167 8.99896 8.0438 8.90183 8.22555 8.84983C8.4073 8.79783 8.60005 8.78721 8.8038 8.81796L21.871 11.074L26.5788 6.35758C27.0001 5.93633 27.5092 5.72571 28.1062 5.72571C28.7032 5.72571 29.2123 5.93633 29.6335 6.35758C30.0548 6.77858 30.2654 7.28771 30.2654 7.88496C30.2654 8.48196 30.0548 8.99108 29.6335 9.41233L24.9258 14.1287L27.1732 27.1873C27.2039 27.3911 27.1947 27.5853 27.1454 27.7701C27.0964 27.9546 27.0008 28.1181 26.8585 28.2606L26.4607 28.621C26.1587 28.923 25.7962 29.0403 25.3732 28.9731C24.9499 28.9056 24.6585 28.6681 24.499 28.2606L20.4288 18.6257L15.8249 23.221L16.621 27.8998C16.6518 28.0536 16.6489 28.2012 16.6124 28.3427C16.5759 28.484 16.499 28.6132 16.3818 28.7305L15.9749 29.1085C15.7404 29.3432 15.4727 29.4326 15.1717 29.3766C14.8707 29.3208 14.6432 29.1546 14.4892 28.8778L11.9249 24.0748L7.12192 21.5106C6.84517 21.3566 6.67892 21.1291 6.62317 20.8281C6.56717 20.5271 6.65655 20.2593 6.8913 20.0248L7.2693 19.618C7.38655 19.5007 7.5158 19.4191 7.65705 19.3731C7.79855 19.3268 7.94617 19.3191 8.09992 19.3498L12.7702 20.1662L17.3452 15.571Z" fill="#152F56"/>
</svg>
