<svg width="36" height="36" viewBox="0 0 36 36" fill="none" xmlns="http://www.w3.org/2000/svg">
<path d="M17.9307 19.4366L14.0711 20.3942L12.4153 19.151C12.3596 19.1106 12.1932 19.0702 11.9163 19.0299L11.7577 19.0904C11.5711 19.1404 11.4399 19.25 11.3639 19.4193C11.288 19.5885 11.298 19.7587 11.3942 19.9298L13.0615 22.8577C13.1423 22.9981 13.2529 23.0971 13.3932 23.1548C13.5336 23.2125 13.6817 23.2164 13.8375 23.1664L26.5384 19.8058C26.8942 19.7154 27.1682 19.5082 27.3605 19.1842C27.5528 18.8601 27.6038 18.525 27.5134 18.1789C27.423 17.8327 27.2187 17.5803 26.9004 17.4217C26.5822 17.263 26.25 17.2289 25.9038 17.3193L22.1711 18.3231L16.5259 13.0298C16.4201 12.9241 16.2942 12.8524 16.148 12.8149C16.0019 12.7774 15.8509 12.7789 15.6952 12.8193L15.5221 12.8568C15.2201 12.9222 15.0077 13.0957 14.8846 13.3774C14.7615 13.6592 14.7779 13.9308 14.9336 14.1923L17.9307 19.4366ZM6.46155 29.25C5.71348 29.25 5.07454 28.9851 4.54474 28.4553C4.01491 27.9255 3.75 27.2865 3.75 26.5384V22.4279C3.75 22.1818 3.82067 21.9635 3.96202 21.7731C4.10337 21.5828 4.29231 21.4529 4.52884 21.3837C5.18654 21.0779 5.72116 20.6241 6.13271 20.0222C6.54424 19.4202 6.75 18.7462 6.75 18C6.75 17.2539 6.54424 16.5798 6.13271 15.9779C5.72116 15.3759 5.18654 14.9221 4.52884 14.6163C4.29231 14.5471 4.10337 14.4173 3.96202 14.2269C3.82067 14.0365 3.75 13.8182 3.75 13.5721V9.46161C3.75 8.71354 4.01491 8.0746 4.54474 7.5448C5.07454 7.01497 5.71348 6.75006 6.46155 6.75006H29.5384C30.2865 6.75006 30.9254 7.01497 31.4552 7.5448C31.985 8.0746 32.2499 8.71354 32.2499 9.46161V26.5384C32.2499 27.2865 31.985 27.9255 31.4552 28.4553C30.9254 28.9851 30.2865 29.25 29.5384 29.25H6.46155Z" fill="black"/>
</svg>
