<svg width="36" height="36" viewBox="0 0 36 36" fill="none" xmlns="http://www.w3.org/2000/svg">
<path d="M24 3V7.5M9 3V7.5" stroke="#373737" stroke-width="1.5" stroke-linecap="round" stroke-linejoin="round"/>
<path d="M30 19.5V17.25C30 11.5931 30 8.76472 28.2426 7.00735C26.4853 5.25 23.6568 5.25 18 5.25H15C9.34314 5.25 6.51473 5.25 4.75736 7.00735C3 8.76472 3 11.5931 3 17.25V21C3 26.6568 3 29.4853 4.75736 31.2426C6.51473 33 9.34314 33 15 33H17.25" stroke="#373737" stroke-width="1.5" stroke-linecap="round" stroke-linejoin="round"/>
<path d="M21 29.25C21 29.25 23.0228 30.0101 24 33C24 33 28.7648 25.5 33 24" stroke="#373737" stroke-width="1.5" stroke-linecap="round" stroke-linejoin="round"/>
<path d="M3.75 12.75H29.25" stroke="#373737" stroke-width="1.5" stroke-linecap="round" stroke-linejoin="round"/>
</svg>
