<svg width="37" height="36" viewBox="0 0 37 36" fill="none" xmlns="http://www.w3.org/2000/svg">
<path d="M6.56399 16.125C6.17986 16.125 5.85788 15.9951 5.59803 15.7352C5.33818 15.4754 5.20825 15.1534 5.20825 14.7692V6.2308C5.20825 5.84667 5.33818 5.52469 5.59803 5.26484C5.85788 5.00499 6.17986 4.87506 6.56399 4.87506H15.1024C15.4866 4.87506 15.8086 5.00499 16.0684 5.26484C16.3283 5.52469 16.4582 5.84667 16.4582 6.2308V14.7692C16.4582 15.1534 16.3283 15.4754 16.0684 15.7352C15.8086 15.9951 15.4866 16.125 15.1024 16.125H6.56399ZM21.564 16.125C21.1799 16.125 20.8579 15.9951 20.598 15.7352C20.3382 15.4754 20.2083 15.1534 20.2083 14.7692V6.2308C20.2083 5.84667 20.3382 5.52469 20.598 5.26484C20.8579 5.00499 21.1799 4.87506 21.564 4.87506H30.1024C30.4866 4.87506 30.8086 5.00499 31.0684 5.26484C31.3283 5.52469 31.4582 5.84667 31.4582 6.2308V14.7692C31.4582 15.1534 31.3283 15.4754 31.0684 15.7352C30.8086 15.9951 30.4866 16.125 30.1024 16.125H21.564ZM6.56399 31.125C6.17986 31.125 5.85788 30.9951 5.59803 30.7352C5.33818 30.4754 5.20825 30.1534 5.20825 29.7693V21.2308C5.20825 20.8467 5.33818 20.5247 5.59803 20.2648C5.85788 20.005 6.17986 19.8751 6.56399 19.8751H15.1024C15.4866 19.8751 15.8086 20.005 16.0684 20.2648C16.3283 20.5247 16.4582 20.8467 16.4582 21.2308V29.7693C16.4582 30.1534 16.3283 30.4754 16.0684 30.7352C15.8086 30.9951 15.4866 31.125 15.1024 31.125H6.56399ZM25.8327 31.125C25.5138 31.125 25.2467 31.0172 25.0313 30.8016C24.8159 30.586 24.7083 30.3188 24.7083 30V26.625H21.2957C20.9861 26.625 20.7275 26.5171 20.5198 26.3014C20.3121 26.0857 20.2083 25.8184 20.2083 25.4995C20.2083 25.1806 20.3161 24.9135 20.5317 24.6981C20.7473 24.4827 21.0145 24.3751 21.3332 24.3751H24.7083V20.9625C24.7083 20.6529 24.8161 20.3943 25.0318 20.1866C25.2475 19.9789 25.5148 19.8751 25.8337 19.8751C26.1526 19.8751 26.4197 19.9829 26.6351 20.1985C26.8505 20.4141 26.9582 20.6813 26.9582 21V24.3751H30.3707C30.6803 24.3751 30.939 24.4829 31.1467 24.6986C31.3543 24.9143 31.4582 25.1816 31.4582 25.5005C31.4582 25.8194 31.3504 26.0866 31.1348 26.3019C30.9192 26.5173 30.652 26.625 30.3332 26.625H26.9582V30.0375C26.9582 30.3471 26.8503 30.6058 26.6346 30.8135C26.4189 31.0212 26.1516 31.125 25.8327 31.125Z" fill="black"/>
</svg>
