<svg width="96" height="96" viewBox="0 0 96 96" fill="none" xmlns="http://www.w3.org/2000/svg">
<g clip-path="url(#clip0_2202_24)">
<rect x="29" y="25" width="46" height="47" fill="white"/>
<path d="M95.3702 27.8981C95.3702 19.4606 89.1639 12.6731 81.4952 12.6731C71.1077 12.1875 60.5139 12 49.6877 12H46.3127C35.5127 12 24.9002 12.1875 14.5127 12.675C6.86266 12.675 0.656414 19.5 0.656414 27.9375C0.187664 34.6106 -0.0110864 41.2856 0.00016364 47.9606C-0.0185864 54.6356 0.193914 61.3169 0.637664 68.0044C0.637664 76.4419 6.84391 83.2856 14.4939 83.2856C25.4064 83.7919 36.6002 84.0169 47.9814 83.9981C59.3814 84.0356 70.5439 83.7981 81.4689 83.2856C89.1377 83.2856 95.3439 76.4419 95.3439 68.0044C95.7939 61.3106 96.0002 54.6356 95.9814 47.9419C96.0239 41.2669 95.8202 34.5856 95.3702 27.8981ZM38.8127 66.3544V29.5106L66.0002 47.9231L38.8127 66.3544Z" fill="#D71712"/>
</g>
<defs>
<clipPath id="clip0_2202_24">
<rect width="96" height="96" fill="white"/>
</clipPath>
</defs>
</svg>
