<svg width="36" height="36" viewBox="0 0 36 36" fill="none" xmlns="http://www.w3.org/2000/svg">
<path d="M27 3C30.2471 3 33 5.72226 33 9.02489C33 12.3801 30.2022 14.7347 27.618 16.3358C27.4296 16.4435 27.2168 16.5 27 16.5C26.7832 16.5 26.5704 16.4435 26.382 16.3358C23.8026 14.7191 21 12.3917 21 9.02489C21 5.72226 23.7529 3 27 3Z" stroke="#373737" stroke-width="1.5"/>
<path d="M27 9H27.0135" stroke="#373737" stroke-width="1.5" stroke-linecap="round" stroke-linejoin="round"/>
<path d="M7.5 33C9.98528 33 12 30.9853 12 28.5C12 26.0147 9.98528 24 7.5 24C5.01472 24 3 26.0147 3 28.5C3 30.9853 5.01472 33 7.5 33Z" stroke="#373737" stroke-width="1.5" stroke-linecap="round" stroke-linejoin="round"/>
<path d="M16.5 10.5H14.25C11.3505 10.5 9 12.5147 9 15C9 17.4854 11.3505 19.5 14.25 19.5H18.75C21.6495 19.5 24 21.5146 24 24C24 26.4854 21.6495 28.5 18.75 28.5H16.5" stroke="#373737" stroke-width="1.5" stroke-linecap="round" stroke-linejoin="round"/>
</svg>
