<svg width="37" height="36" viewBox="0 0 37 36" fill="none" xmlns="http://www.w3.org/2000/svg">
<path d="M18.6665 22.1654L22.5982 25.1423C22.8693 25.3327 23.1429 25.3389 23.4188 25.1611C23.6948 24.9832 23.7799 24.7336 23.6741 24.4125L22.1857 19.4885L26.0263 16.7575C26.3082 16.5474 26.3938 16.2856 26.2832 15.9721C26.1727 15.6587 25.9525 15.502 25.6226 15.502H20.9222L19.3213 10.3299C19.2065 10.0087 18.9883 9.84813 18.6669 9.84813C18.3455 9.84813 18.1271 10.0087 18.0117 10.3299L16.4107 15.502H11.7103C11.3805 15.502 11.1603 15.6587 11.0497 15.9721C10.9391 16.2856 11.0248 16.5474 11.3066 16.7575L15.1472 19.4885L13.6588 24.4125C13.553 24.7336 13.6381 24.9832 13.9141 25.1611C14.19 25.3389 14.4636 25.3327 14.7347 25.1423L18.6665 22.1654ZM18.669 32.25C16.6981 32.25 14.8455 31.876 13.1113 31.128C11.3771 30.38 9.86858 29.3649 8.58575 28.0826C7.3029 26.8003 6.28732 25.2925 5.53899 23.559C4.79067 21.8256 4.4165 19.9734 4.4165 18.0025C4.4165 16.0316 4.7905 14.1791 5.5385 12.4449C6.2865 10.7107 7.30163 9.20214 8.58388 7.91931C9.86615 6.63646 11.374 5.62088 13.1075 4.87255C14.8409 4.12423 16.6931 3.75006 18.664 3.75006C20.6349 3.75006 22.4874 4.12406 24.2216 4.87206C25.9558 5.62006 27.4644 6.63519 28.7472 7.91744C30.03 9.19971 31.0456 10.7076 31.7939 12.441C32.5423 14.1745 32.9164 16.0266 32.9164 17.9975C32.9164 19.9684 32.5424 21.821 31.7944 23.5552C31.0464 25.2894 30.0313 26.7979 28.7491 28.0807C27.4668 29.3636 25.9589 30.3792 24.2255 31.1275C22.492 31.8758 20.6399 32.25 18.669 32.25Z" fill="black"/>
</svg>
