<svg width="120" height="24" viewBox="0 0 120 24" fill="none" xmlns="http://www.w3.org/2000/svg">
<path d="M11.9999 16.1018L8.36915 18.294C8.26265 18.3465 8.1639 18.3677 8.0729 18.3575C7.9819 18.3472 7.89348 18.3158 7.80765 18.2633C7.72165 18.2106 7.65623 18.1353 7.6114 18.0373C7.56657 17.9393 7.56273 17.8332 7.5999 17.719L8.5654 13.6093L5.37115 10.8383C5.28132 10.7651 5.22198 10.6776 5.19315 10.5758C5.16432 10.4738 5.1704 10.376 5.2114 10.2825C5.2524 10.1889 5.30757 10.1125 5.3769 10.0535C5.44607 9.9947 5.53965 9.95495 5.65765 9.93428L9.8729 9.56703L11.5172 5.67478C11.562 5.56445 11.6271 5.48495 11.7124 5.43628C11.7977 5.38762 11.8936 5.36328 11.9999 5.36328C12.1062 5.36328 12.2021 5.38762 12.2874 5.43628C12.3727 5.48495 12.4378 5.56445 12.4827 5.67478L14.1269 9.56703L18.3422 9.93428C18.4602 9.95495 18.5537 9.9947 18.6229 10.0535C18.6922 10.1125 18.7474 10.1889 18.7884 10.2825C18.8294 10.376 18.8355 10.4738 18.8067 10.5758C18.7778 10.6776 18.7185 10.7651 18.6287 10.8383L15.4344 13.6093L16.3999 17.719C16.4371 17.8332 16.4332 17.9393 16.3884 18.0373C16.3436 18.1353 16.2782 18.2106 16.1922 18.2633C16.1063 18.3158 16.0179 18.3472 15.9269 18.3575C15.8359 18.3677 15.7372 18.3465 15.6307 18.294L11.9999 16.1018Z" fill="#F6BB06"/>
<path d="M35.9999 16.1018L32.3692 18.294C32.2627 18.3465 32.1639 18.3677 32.0729 18.3575C31.9819 18.3472 31.8935 18.3158 31.8077 18.2633C31.7217 18.2106 31.6562 18.1353 31.6114 18.0373C31.5666 17.9393 31.5627 17.8332 31.5999 17.719L32.5654 13.6093L29.3712 10.8383C29.2813 10.7651 29.222 10.6776 29.1932 10.5758C29.1643 10.4738 29.1704 10.376 29.2114 10.2825C29.2524 10.1889 29.3076 10.1125 29.3769 10.0535C29.4461 9.9947 29.5397 9.95495 29.6577 9.93428L33.8729 9.56703L35.5172 5.67478C35.562 5.56445 35.6271 5.48495 35.7124 5.43628C35.7977 5.38762 35.8936 5.36328 35.9999 5.36328C36.1062 5.36328 36.2021 5.38762 36.2874 5.43628C36.3727 5.48495 36.4378 5.56445 36.4827 5.67478L38.1269 9.56703L42.3422 9.93428C42.4602 9.95495 42.5537 9.9947 42.6229 10.0535C42.6922 10.1125 42.7474 10.1889 42.7884 10.2825C42.8294 10.376 42.8355 10.4738 42.8067 10.5758C42.7778 10.6776 42.7185 10.7651 42.6287 10.8383L39.4344 13.6093L40.3999 17.719C40.4371 17.8332 40.4332 17.9393 40.3884 18.0373C40.3436 18.1353 40.2782 18.2106 40.1922 18.2633C40.1063 18.3158 40.0179 18.3472 39.9269 18.3575C39.8359 18.3677 39.7372 18.3465 39.6306 18.294L35.9999 16.1018Z" fill="#F6BB06"/>
<path d="M59.9999 16.1018L56.3692 18.294C56.2627 18.3465 56.1639 18.3677 56.0729 18.3575C55.9819 18.3472 55.8935 18.3158 55.8077 18.2633C55.7217 18.2106 55.6562 18.1353 55.6114 18.0373C55.5666 17.9393 55.5627 17.8332 55.5999 17.719L56.5654 13.6093L53.3712 10.8383C53.2813 10.7651 53.222 10.6776 53.1932 10.5758C53.1643 10.4738 53.1704 10.376 53.2114 10.2825C53.2524 10.1889 53.3076 10.1125 53.3769 10.0535C53.4461 9.9947 53.5397 9.95495 53.6577 9.93428L57.8729 9.56703L59.5172 5.67478C59.562 5.56445 59.6271 5.48495 59.7124 5.43628C59.7977 5.38762 59.8936 5.36328 59.9999 5.36328C60.1062 5.36328 60.2021 5.38762 60.2874 5.43628C60.3727 5.48495 60.4378 5.56445 60.4827 5.67478L62.1269 9.56703L66.3422 9.93428C66.4602 9.95495 66.5537 9.9947 66.6229 10.0535C66.6922 10.1125 66.7474 10.1889 66.7884 10.2825C66.8294 10.376 66.8355 10.4738 66.8067 10.5758C66.7778 10.6776 66.7185 10.7651 66.6287 10.8383L63.4344 13.6093L64.3999 17.719C64.4371 17.8332 64.4332 17.9393 64.3884 18.0373C64.3436 18.1353 64.2782 18.2106 64.1922 18.2633C64.1063 18.3158 64.0179 18.3472 63.9269 18.3575C63.8359 18.3677 63.7372 18.3465 63.6306 18.294L59.9999 16.1018Z" fill="#F6BB06"/>
<path d="M83.9999 16.1018L80.3692 18.294C80.2627 18.3465 80.1639 18.3677 80.0729 18.3575C79.9819 18.3472 79.8935 18.3158 79.8077 18.2633C79.7217 18.2106 79.6562 18.1353 79.6114 18.0373C79.5666 17.9393 79.5627 17.8332 79.5999 17.719L80.5654 13.6093L77.3712 10.8383C77.2813 10.7651 77.222 10.6776 77.1932 10.5758C77.1643 10.4738 77.1704 10.376 77.2114 10.2825C77.2524 10.1889 77.3076 10.1125 77.3769 10.0535C77.4461 9.9947 77.5397 9.95495 77.6577 9.93428L81.8729 9.56703L83.5172 5.67478C83.562 5.56445 83.6271 5.48495 83.7124 5.43628C83.7977 5.38762 83.8936 5.36328 83.9999 5.36328C84.1062 5.36328 84.2021 5.38762 84.2874 5.43628C84.3727 5.48495 84.4378 5.56445 84.4827 5.67478L86.1269 9.56703L90.3422 9.93428C90.4602 9.95495 90.5537 9.9947 90.6229 10.0535C90.6922 10.1125 90.7474 10.1889 90.7884 10.2825C90.8294 10.376 90.8355 10.4738 90.8067 10.5758C90.7778 10.6776 90.7185 10.7651 90.6287 10.8383L87.4344 13.6093L88.3999 17.719C88.4371 17.8332 88.4332 17.9393 88.3884 18.0373C88.3436 18.1353 88.2782 18.2106 88.1922 18.2633C88.1063 18.3158 88.0179 18.3472 87.9269 18.3575C87.8359 18.3677 87.7372 18.3465 87.6306 18.294L83.9999 16.1018Z" fill="#F6BB06"/>
<path d="M108 16.1018L104.369 18.294C104.263 18.3465 104.164 18.3677 104.073 18.3575C103.982 18.3472 103.893 18.3158 103.808 18.2633C103.722 18.2106 103.656 18.1353 103.611 18.0373C103.567 17.9393 103.563 17.8332 103.6 17.719L104.565 13.6093L101.371 10.8383C101.281 10.7651 101.222 10.6776 101.193 10.5758C101.164 10.4738 101.17 10.376 101.211 10.2825C101.252 10.1889 101.308 10.1125 101.377 10.0535C101.446 9.9947 101.54 9.95495 101.658 9.93428L105.873 9.56703L107.517 5.67478C107.562 5.56445 107.627 5.48495 107.712 5.43628C107.798 5.38762 107.894 5.36328 108 5.36328C108.106 5.36328 108.202 5.38762 108.287 5.43628C108.373 5.48495 108.438 5.56445 108.483 5.67478L110.127 9.56703L114.342 9.93428C114.46 9.95495 114.554 9.9947 114.623 10.0535C114.692 10.1125 114.747 10.1889 114.788 10.2825C114.829 10.376 114.835 10.4738 114.807 10.5758C114.778 10.6776 114.718 10.7651 114.629 10.8383L111.434 13.6093L112.4 17.719C112.437 17.8332 112.433 17.9393 112.388 18.0373C112.344 18.1353 112.278 18.2106 112.192 18.2633C112.106 18.3158 112.018 18.3472 111.927 18.3575C111.836 18.3677 111.737 18.3465 111.631 18.294L108 16.1018Z" fill="#F6BB06"/>
</svg>
