<svg width="36" height="36" viewBox="0 0 36 36" fill="none" xmlns="http://www.w3.org/2000/svg">
<path d="M18 33C26.2842 33 33 26.2842 33 18C33 9.71572 26.2842 3 18 3C9.71572 3 3 9.71572 3 18C3 20.0684 3.4186 22.0389 4.17573 23.8316C4.59417 24.8222 4.80339 25.3176 4.8293 25.692C4.8552 26.0664 4.74501 26.4782 4.52463 27.3018L3 33L8.69815 31.4754C9.52182 31.2551 9.93366 31.1448 10.308 31.1708C10.6824 31.1966 11.1778 31.4058 12.1685 31.8243C13.9612 32.5813 15.9316 33 18 33Z" stroke="#373737" stroke-width="1.5" stroke-linejoin="round"/>
<path d="M12.8822 18.566L14.1886 16.9434C14.7392 16.2595 15.4199 15.6229 15.4733 14.7124C15.4866 14.4824 15.3249 13.4499 15.0012 11.3848C14.874 10.5732 14.1163 10.5 13.46 10.5C12.6047 10.5 12.1771 10.5 11.7524 10.694C11.2157 10.9391 10.6647 11.6285 10.5438 12.206C10.4481 12.6629 10.5192 12.9778 10.6614 13.6075C11.2653 16.2822 12.6822 18.9237 14.8792 21.1207C17.0763 23.3178 19.7178 24.7347 22.3924 25.3386C23.0221 25.4808 23.337 25.5519 23.7941 25.4562C24.3716 25.3353 25.0608 24.7844 25.3061 24.2475C25.5 23.8229 25.5 23.3954 25.5 22.5401C25.5 21.8837 25.4268 21.126 24.6152 20.9988C22.5501 20.6751 21.5176 20.5134 21.2875 20.5267C20.377 20.5801 19.7405 21.2607 19.0566 21.8114L17.434 23.1177" stroke="#373737" stroke-width="1.5"/>
</svg>
