<svg width="40" height="40" viewBox="0 0 40 40" fill="none" xmlns="http://www.w3.org/2000/svg">
<rect width="40" height="40" rx="20" fill="black"/>
<path fill-rule="evenodd" clip-rule="evenodd" d="M28.4154 12.8877C29.3442 13.1372 30.079 13.872 30.3286 14.8009C30.7861 16.4923 30.8 19.9999 30.8 19.9999C30.8 19.9999 30.8 23.5213 30.3424 25.1989C30.0929 26.1277 29.3581 26.8625 28.4292 27.1121C26.7517 27.5696 20 27.5696 20 27.5696C20 27.5696 13.2482 27.5696 11.5707 27.1121C10.6418 26.8625 9.90701 26.1277 9.65746 25.1989C9.19995 23.5075 9.19995 19.9999 9.19995 19.9999C9.19995 19.9999 9.19995 16.4923 9.6436 14.8148C9.89315 13.8859 10.6279 13.1511 11.5568 12.9016C13.2344 12.444 19.9861 12.4302 19.9861 12.4302C19.9861 12.4302 26.7378 12.4302 28.4154 12.8877ZM23.4382 19.9999L17.8372 23.244V16.7557L23.4382 19.9999Z" fill="white"/>
</svg>
